<svg xmlns="http://www.w3.org/2000/svg" width="48.309" height="48.274" viewBox="0 0 48.309 48.274">
  <path id="Path_165" data-name="Path 165" d="M46.695,37.217l-9.5-6.334a2.772,2.772,0,0,0-3.712.6l-2.767,3.557a1.182,1.182,0,0,1-1.516.319l-.526-.29c-1.745-.951-3.915-2.135-8.289-6.51s-5.56-6.548-6.511-8.289l-.289-.526a1.184,1.184,0,0,1,.313-1.522l3.555-2.766a2.774,2.774,0,0,0,.6-3.712l-6.334-9.5a2.758,2.758,0,0,0-3.717-.837L4.035,3.8A5.6,5.6,0,0,0,1.481,7.114c-1.43,5.211-.354,14.2,12.894,27.455C24.914,45.106,32.759,47.94,38.152,47.94a13.854,13.854,0,0,0,3.675-.48,5.6,5.6,0,0,0,3.316-2.555l2.388-3.969A2.758,2.758,0,0,0,46.695,37.217Zm-.511,2.917L43.8,44.105a4.041,4.041,0,0,1-2.385,1.849C36.6,47.275,28.2,46.181,15.481,33.462S1.668,12.339,2.989,7.528A4.048,4.048,0,0,1,4.84,5.139L8.812,2.757a1.2,1.2,0,0,1,1.613.363l3.441,5.166,2.888,4.331a1.2,1.2,0,0,1-.261,1.611l-3.556,2.766a2.737,2.737,0,0,0-.725,3.513l.282.513c1,1.833,2.242,4.113,6.778,8.649s6.816,5.778,8.648,6.777l.514.283A2.737,2.737,0,0,0,31.947,36l2.766-3.556a1.2,1.2,0,0,1,1.611-.261l9.5,6.334A1.2,1.2,0,0,1,46.183,40.134Z" transform="translate(-0.369 -0.266)" fill="#fff" stroke="#fff" stroke-width="1.2"/>
</svg>
