<svg xmlns="http://www.w3.org/2000/svg" width="47.831" height="35.873" viewBox="0 0 47.831 35.873">
  <path id="envelope" d="M43.347,59.882H4.484A4.489,4.489,0,0,0,0,64.366v26.9a4.489,4.489,0,0,0,4.484,4.484H43.347a4.489,4.489,0,0,0,4.484-4.484v-26.9a4.489,4.489,0,0,0-4.484-4.484Zm0,2.989a1.486,1.486,0,0,1,.573.116l-20,17.338-20-17.338a1.488,1.488,0,0,1,.573-.116Zm0,29.894H4.484a1.5,1.5,0,0,1-1.495-1.495V66.145L22.936,83.432a1.5,1.5,0,0,0,1.959,0L44.841,66.145V91.271A1.5,1.5,0,0,1,43.347,92.766Z" transform="translate(0 -59.882)" fill="#fff"/>
</svg>
