<svg id="facebook-letter-logo" xmlns="http://www.w3.org/2000/svg" width="31.595" height="67.978" viewBox="0 0 31.595 67.978">
  <g id="Group_299" data-name="Group 299" transform="translate(0)">
    <path id="Path_150" data-name="Path 150" d="M175.633,0h-7.081q-8.126,0-11.673,3.857t-3.547,11.364v4.771a2.282,2.282,0,0,1-2.283,2.283H148.6a2.282,2.282,0,0,0-2.283,2.283v7.149a2.282,2.282,0,0,0,2.283,2.283h2.447a2.282,2.282,0,0,1,2.283,2.283V65.695a2.282,2.282,0,0,0,2.283,2.283h9.5a2.283,2.283,0,0,0,2.283-2.283V36.271a2.282,2.282,0,0,1,2.283-2.283h4.8A2.592,2.592,0,0,0,177,31.719l.758-7.175a2.01,2.01,0,0,0-2.043-2.27h-6.036a2.282,2.282,0,0,1-2.283-2.283V16.417a12.821,12.821,0,0,1,.124-2.042,3.975,3.975,0,0,1,.557-1.423,2.275,2.275,0,0,1,1.4-.969,9.99,9.99,0,0,1,2.578-.269h3.575a2.282,2.282,0,0,0,2.282-2.283V2.283A2.281,2.281,0,0,0,175.633,0Z" transform="translate(-146.32)" fill="#fff"/>
  </g>
</svg>
