<svg id="copy" xmlns="http://www.w3.org/2000/svg" width="36.299" height="45.332" viewBox="0 0 36.299 45.332">
  <g id="Group_349" data-name="Group 349" transform="translate(0)">
    <path id="Path_171" data-name="Path 171" d="M73.307,85.4H52.234a3.586,3.586,0,0,0-3.584,3.583V119.22a3.586,3.586,0,0,0,3.584,3.583H73.307a3.586,3.586,0,0,0,3.583-3.583V88.983A3.6,3.6,0,0,0,73.307,85.4Zm1.068,33.811a1.078,1.078,0,0,1-1.077,1.077H52.224a1.078,1.078,0,0,1-1.077-1.077V88.983a1.078,1.078,0,0,1,1.077-1.077H73.3a1.078,1.078,0,0,1,1.077,1.077Z" transform="translate(-48.65 -77.472)" fill="#fff"/>
    <path id="Path_172" data-name="Path 172" d="M160.107,0H139.033a3.586,3.586,0,0,0-3.584,3.584,1.253,1.253,0,0,0,2.507,0,1.078,1.078,0,0,1,1.077-1.077h21.074a1.078,1.078,0,0,1,1.077,1.077V33.82a1.078,1.078,0,0,1-1.077,1.077,1.253,1.253,0,0,0,0,2.507,3.586,3.586,0,0,0,3.583-3.583V3.584A3.586,3.586,0,0,0,160.107,0Z" transform="translate(-127.392)" fill="#fff"/>
  </g>
</svg>
