<svg id="instagram_1_" data-name="instagram (1)" xmlns="http://www.w3.org/2000/svg" width="62.661" height="62.661" viewBox="0 0 62.661 62.661">
  <path id="Path_151" data-name="Path 151" d="M45.7,0H16.961A16.981,16.981,0,0,0,0,16.962V45.7A16.981,16.981,0,0,0,16.961,62.661H45.7A16.981,16.981,0,0,0,62.661,45.7V16.962A16.981,16.981,0,0,0,45.7,0ZM31.33,48.464A17.134,17.134,0,1,1,48.463,31.331,17.153,17.153,0,0,1,31.33,48.464ZM48.873,18.238a5.063,5.063,0,1,1,5.063-5.063A5.068,5.068,0,0,1,48.873,18.238Zm0,0" transform="translate(0.001 0)" fill="#fff"/>
  <path id="Path_152" data-name="Path 152" d="M159.48,146.02a13.46,13.46,0,1,0,13.46,13.46A13.475,13.475,0,0,0,159.48,146.02Zm0,0" transform="translate(-128.149 -128.149)" fill="#fff"/>
  <path id="Path_153" data-name="Path 153" d="M389.382,96.3a1.389,1.389,0,1,0,1.39,1.389A1.391,1.391,0,0,0,389.382,96.3Zm0,0" transform="translate(-340.507 -84.515)" fill="#fff"/>
</svg>
