<?xml version="1.0" encoding="utf-8"?>
<!-- Generator: Adobe Illustrator 23.0.1, SVG Export Plug-In . SVG Version: 6.00 Build 0)  -->
<svg version="1.1" id="Layer_1" xmlns="http://www.w3.org/2000/svg" xmlns:xlink="http://www.w3.org/1999/xlink" x="0px" y="0px"
	 viewBox="0 0 512 512" style="enable-background:new 0 0 512 512;" xml:space="preserve">
<style type="text/css">
	.st0{fill:#27262B;}
</style>
<g>
	<g>
		<path class="st0" d="M256,0C114.8,0,0,114.8,0,256c0,137.4,108.9,249.6,244.9,255.4c0,0,0.2,0.2,0.3,0.3l0.2-0.2
			c3.5,0.2,7,0.5,10.5,0.5s7-0.4,10.6-0.5l0.2,0.2c0,0,0.2-0.2,0.3-0.3c136-5.9,244.9-118,244.9-255.5C512,114.8,397.2,0,256,0z
			 M234.4,17.1c-20.5,20.7-59.5,65.3-84.7,125.7c-31.9-22.3-49.9-49.9-56.9-62.3C130.7,45.2,179.9,22,234.4,17.1z M81.2,92.1
			c9.4,15.2,29.6,43.1,62.6,65.5c-9.9,27.4-16.5,57.8-17.5,90.4H16.4C18.4,187.8,42.6,133.2,81.2,92.1z M16.4,264h109.9
			c1,32.5,7.4,63,17,90.7c-32.7,22.4-52.8,50.1-62.1,65.2C42.6,378.8,18.4,324.2,16.4,264z M92.8,431.4
			c6.9-12.2,24.8-39.5,56.3-61.8c23.2,57.8,58.3,101.8,79.1,124.6C176.1,488.2,129.2,465.4,92.8,431.4z M248,491.9
			c-17.4-18-59.3-66-85-131.1c22.4-13,50.6-22.5,85-23.8V491.9z M248,320.9c-36.2,1.3-66.3,11.2-90.5,24.9
			c-8.6-25.3-14.3-52.7-15.2-81.8H248V320.9z M248,248H142.3c1-29.1,6.8-56.5,15.7-81.6c24.1,13.5,54,23.3,90,24.6V248z M248,175.1
			c-34.1-1.3-62-10.6-84.3-23.4C188.9,90.4,229.2,45.2,248,26.3V175.1z M495.6,248H385.7c-1-32.7-7.6-63.2-17.6-90.6
			c33.6-23,53.4-51.6,62-66.1C469.1,132.5,493.6,187.4,495.6,248z M418.4,79.8c-5.9,11-23.5,39.5-56.2,62.7
			c-25.3-60.3-64.1-104.8-84.6-125.4C331.7,21.9,380.6,44.9,418.4,79.8z M264,26.3c18.8,18.8,59.1,64,84.3,125.2
			c-22.2,12.8-50,22.3-84.3,23.6V26.3z M264,248v-56.9c36.1-1.4,66-11.2,90-24.8c8.9,25.1,14.8,52.5,15.7,81.7L264,248L264,248z
			 M264,264h105.7c-0.9,29.1-6.7,56.7-15.3,82c-24-13.7-54-23.6-90.4-25V264z M264,491.8V336.9c34.5,1.4,62.6,11,84.8,24
			C323.1,425.9,281.3,473.8,264,491.8z M283.8,494.3c20.8-22.8,55.7-66.7,79-124.3c32.3,23.1,49.7,51.3,55.6,62.2
			C382,465.7,335.5,488.3,283.8,494.3z M430.1,420.7c-8.6-14.4-28.2-42.8-61.5-65.8c9.7-27.7,16.1-58.4,17.1-90.9h109.9
			C493.6,324.6,469.1,379.5,430.1,420.7z"/>
	</g>
</g>
</svg>
