<svg id="XMLID_801_" xmlns="http://www.w3.org/2000/svg" width="59.207" height="59.077" viewBox="0 0 59.207 59.077">
  <path id="XMLID_802_" d="M17.768,99.73H5.882a.955.955,0,0,0-.955.955v38.184a.955.955,0,0,0,.955.955H17.768a.955.955,0,0,0,.955-.955V100.685A.955.955,0,0,0,17.768,99.73Z" transform="translate(-3.986 -80.748)" fill="#fff"/>
  <path id="XMLID_803_" d="M7.843.341A7.836,7.836,0,1,0,15.68,8.176,7.848,7.848,0,0,0,7.843.341Z" transform="translate(0 -0.341)" fill="#fff"/>
  <path id="XMLID_804_" d="M129.912,94.761a13.96,13.96,0,0,0-10.443,4.384v-2.48a.955.955,0,0,0-.955-.955H107.131a.955.955,0,0,0-.955.955v38.184a.955.955,0,0,0,.955.955h11.86a.955.955,0,0,0,.955-.955V115.957c0-6.366,1.729-8.846,6.167-8.846,4.833,0,5.217,3.976,5.217,9.174v18.565a.955.955,0,0,0,.955.955h11.864a.955.955,0,0,0,.955-.955V113.9C145.1,104.438,143.3,94.761,129.912,94.761Z" transform="translate(-85.897 -76.728)" fill="#fff"/>
</svg>
