<svg id="location-pin" xmlns="http://www.w3.org/2000/svg" width="36.507" height="53.784" viewBox="0 0 36.507 53.784">
  <g id="Group_348" data-name="Group 348" transform="translate(0)">
    <path id="Path_169" data-name="Path 169" d="M97.21,0A18.274,18.274,0,0,0,78.957,18.253c0,4.045,2.381,10.2,7.494,19.358,3.489,6.251,6.961,11.532,7.108,11.754l2.51,3.8a1.368,1.368,0,0,0,2.283,0l2.51-3.8c.145-.22,3.592-5.455,7.108-11.755,5.113-9.161,7.494-15.313,7.494-19.358A18.274,18.274,0,0,0,97.21,0Zm8.371,36.278c-3.467,6.212-6.86,11.364-7,11.581L97.21,49.933l-1.368-2.074c-.144-.218-3.563-5.417-7-11.581-4.742-8.5-7.147-14.563-7.147-18.025a15.518,15.518,0,0,1,31.036,0C112.729,21.715,110.324,27.78,105.582,36.278Z" transform="translate(-78.957)" fill="#fff"/>
    <path id="Path_170" data-name="Path 170" d="M163.411,73.291a10.12,10.12,0,1,0,10.12,10.12A10.132,10.132,0,0,0,163.411,73.291Zm0,17.506a7.385,7.385,0,1,1,7.385-7.385A7.394,7.394,0,0,1,163.411,90.8Z" transform="translate(-145.158 -65.272)" fill="#fff"/>
  </g>
</svg>
