<?xml version="1.0" encoding="utf-8"?>
<!-- Generator: Adobe Illustrator 23.0.1, SVG Export Plug-In . SVG Version: 6.00 Build 0)  -->
<svg version="1.1" id="Capa_1" xmlns="http://www.w3.org/2000/svg" xmlns:xlink="http://www.w3.org/1999/xlink" x="0px" y="0px"
	 viewBox="0 0 512 512" style="enable-background:new 0 0 512 512;" xml:space="preserve">
<style type="text/css">
	.st0{fill:#FFFFFF;}
</style>
<g>
	<g>
		<g>
			<path class="st0" d="M478.8,237.1H33.2c-10.4,0-18.9,8.5-18.9,18.9c0,10.4,8.5,18.9,18.9,18.9h445.6c10.4,0,18.9-8.5,18.9-18.9
				C497.7,245.6,489.2,237.1,478.8,237.1z"/>
		</g>
	</g>
	<g>
		<g>
			<path class="st0" d="M478.8,86.1H33.2c-10.4,0-18.9,8.5-18.9,18.9s8.5,18.9,18.9,18.9h445.6c10.4,0,18.9-8.5,18.9-18.9
				S489.2,86.1,478.8,86.1z"/>
		</g>
	</g>
	<g>
		<g>
			<path class="st0" d="M478.8,388.2H33.2c-10.4,0-18.9,8.5-18.9,18.9c0,10.4,8.5,18.9,18.9,18.9h445.6c10.4,0,18.9-8.5,18.9-18.9
				C497.7,396.6,489.2,388.2,478.8,388.2z"/>
		</g>
	</g>
</g>
</svg>
