<?xml version="1.0" encoding="utf-8"?>
<!-- Generator: Adobe Illustrator 23.0.1, SVG Export Plug-In . SVG Version: 6.00 Build 0)  -->
<svg version="1.1" id="Layer_1" xmlns="http://www.w3.org/2000/svg" xmlns:xlink="http://www.w3.org/1999/xlink" x="0px" y="0px"
	 viewBox="0 0 511 511" style="enable-background:new 0 0 511 511;" xml:space="preserve">
<style type="text/css">
	.st0{fill:#FFDC69;}
	.st1{fill:#FFC864;}
</style>
<g>
	<path id="Path_767" class="st0" d="M490.7,176.5L342.8,154L276.7,13.8C272.7,5.3,264.5-0.1,255.4,0v435.4l-132.2,72.8
		c-11.6,6.4-26,1.7-32-10.5c-1.3-2.6-2.2-5.4-2.5-8.4c1.7,13.6,13.6,23.2,26.6,21.5c2.8-0.4,5.5-1.3,8-2.6l132.2-72.7l132.2,72.7
		c11.6,6.4,25.9,1.7,32-10.4c2.4-4.8,3.3-10.3,2.4-15.7l-25.2-154.1l107-109.1c9.4-9.5,9.6-25.2,0.5-35.1
		C500.7,179.8,495.9,177.3,490.7,176.5z"/>
	<path id="Path_774" class="st1" d="M123.3,508.2l132.2-72.7V0.1c-2.7,0.1-5.5,0.6-8,1.6c-5.8,2.1-10.5,6.5-13.2,12.2l-23.8,50.4
		l-42.3,89.8l-40.1,6.1L20.3,176.6c-5.6,0.8-10.8,3.7-14.5,8.2c-1.4,1.7-2.5,3.6-3.5,5.6c-1.4,3-2.2,6.3-2.3,9.6
		c-0.2,3.8,0.5,7.5,1.9,10.9c1.2,3,3,5.7,5.2,8l107,109.1L91.8,464.6l-2.9,17.5c-0.1,0.8-0.2,1.6-0.2,2.4c0,0.5-0.1,0.9-0.1,1.3
		c0,1.2,0,2.4,0.2,3.6c1.7,13.6,13.6,23.2,26.6,21.4C118.1,510.4,120.8,509.5,123.3,508.2z"/>
</g>
</svg>
