<svg id="twitter-black-shape" xmlns="http://www.w3.org/2000/svg" width="71.014" height="60.134" viewBox="0 0 71.014 60.134">
  <g id="Group_301" data-name="Group 301" transform="translate(0 0)">
    <path id="Path_157" data-name="Path 157" d="M68.923,50.144q-.525.153-1.05.286c-2.14.54-2.337-.173-.787-1.746a14.276,14.276,0,0,0,1.839-2.3c1.193-1.857.158-2.667-1.872-1.8q-1.086.464-2.207.84c-2.092.7-5.061-.357-6.925-1.54a15.324,15.324,0,0,0-18.76,2.2,14.628,14.628,0,0,0-4.44,10.735,16.027,16.027,0,0,0,.1,1.747c.106.962-1.513,1.659-3.7,1.35a42,42,0,0,1-13.476-4.3A43.215,43.215,0,0,1,6.467,47.4c-1.544-1.579-3.632-1.443-4.208.688a15.2,15.2,0,0,0-.517,3.986,14.782,14.782,0,0,0,1.832,7.235,15.535,15.535,0,0,0,2.136,3c1.374,1.508,1.164,2.384-.749,1.847a24.647,24.647,0,0,1-3.313-1.281v.094A14.66,14.66,0,0,0,5.1,72.632a15.1,15.1,0,0,0,4.942,3.955c1.978.98,2.9,1.527,1.794,1.67a15.687,15.687,0,0,1-2.014.129q-.686,0-1.437-.063c-.791-.067-.934,1.582.266,3.435a15.194,15.194,0,0,0,3.661,3.887A14.848,14.848,0,0,0,17.2,88.1c2.123.605,2.549,1.708.656,2.843A29.651,29.651,0,0,1,2.3,95.159q-.96,0-1.835-.042c-1.013-.049-.333.843,1.622,1.867a42.138,42.138,0,0,0,19.85,4.8,44.369,44.369,0,0,0,15.174-2.56,38.593,38.593,0,0,0,12.12-6.859A45.9,45.9,0,0,0,57.9,82.474,44.11,44.11,0,0,0,63.33,70.8a43.138,43.138,0,0,0,1.785-12.192c0-.367,0-.7-.009-.986-.011-.545,1.431-2.021,3.041-3.531q1.09-1.023,2.082-2.148C71.689,50.286,71.042,49.527,68.923,50.144Z" transform="translate(-0.003 -41.648)" fill="#fff"/>
  </g>
</svg>
